# xmcd CD database file
#
# Track frame offsets:
#	150
#	14511
#	32628
#	48005
#
# Disc length: 914 seconds
#
# Revision: 0
# Processed by: cddbd v1.5.2PL0 Copyright (c) Steve Scherf et al.
# Submitted via: CDex 1.70beta3
#
DISCID=25039004
DTITLE=SPYAIR - Last Moment
DYEAR=1900
DGENRE=Rhythmic Soul
TTITLE0=Last Moment
TTITLE1=哀より愛し
TTITLE2=ノンフィクション
TTITLE3=Just Like This
EXTD=
EXTT0=
EXTT1=
EXTT2=
EXTT3=
PLAYORDER=
